<svg id="Laag_1" xmlns="http://www.w3.org/2000/svg" viewBox="0 0 596.4 225.9"><style>.st0{fill:#fff}</style><path class="st0" d="M237.7 4.3l3.4 1.1v2.3h-3.4l2.3 3.4c-1.7 3.8-7.8 5.7-18.4 5.7l-8 1.1-1.1 3.4h1.1c-2.3 5.5-6.9 30-13.8 73.5l3.4 14.9h-1.1c-1.7 0-3.2-3.8-4.6-11.5l1.1-11.5v-1.1h-1.1v2.3c-2.3 0-3.4.8-3.4 2.3v1.1l2.3 18.4v1.1H194l-4.6-3.4-1.1 1.1h-1.1c-3.1-6.6-4.6-12.4-4.6-17.2l1.1 1.1h1.1l-2.3-8 3.4-1.1v-5.7h-2.3v-1.1c2.3 0 3.4-.8 3.4-2.3v-1.1h-2.3c0-6.1 1.1-9.2 3.4-9.2V49.1c1.2-1.1 2.7-9.1 4.6-24.1l-8 1.1-16-1.1v-1.1l5.7-1.1v1.1l1.1-1.1h17.2v-3.4l-18.4 2.3-1.1-1.1h-1.1l-6.9 1.1-3.4-2.3 1.1-5.7-1.1-1.1c0-3.8 4.6-5.7 13.8-5.7l62.1-2.6zm-49.4 67.8L186 97.3h2.3l-1.1-5.7v-2.3l2.3-3.4h-1.1l1.1-1.1v-1.1l-1.1-1.1v-1.1l2.3-4.6-1.1-4.6c-.2-.2-1.3-.2-1.3-.2zm42.5-64.4v1.1h4.6V7.7h-4.6zm62.4-1.3l5.5 3.9c-1.6 6.8-4.6 10.1-8.8 9.8l-30 1.4-.1 2.3 5.7.4 7-.7 1.1 1.3 1.1.1 8.1-.7 2.3.2-.1 1.1-26.7 2.8-2.1 14.9 1.1.1 31.2-2.5 1 1.2-.1 1.1-2.3-.2V44l7.9 1.8-.1 1.1c-1.7 4.3-12.7 7.7-33 10.4l-11.6.4 1.1 1.1-5.5 14.6h-.9l.7-10.3-1.1-.1-2.3 16c22.9-3.1 39.1-4.3 48.6-3.6l5.6 1.6-.1 2.3-2.3-.1 1 1.2-.2 3.4c-2.2 2.9-6.9 4.1-14.1 3.6l-.1 1.1 9.2.6-.2 2.3-53.5 7.8-1.1-.1c-3.7-.8-5.5-2-5.5-3.6v-.2l.2-3.4 3.2-12.4-1.1-1.2 2.3.1-.4 5.7 1.1.1c.4-3.8 1.4-5.7 2.7-5.5l-1.1-1.3.8-11.4-2.3-.2-1.6 5.7 1.3-1.1 1.1.1-.5 6.9-1.1-.1.2-3.4-1.1-.1-.1 2.3-1.1-.1.1-2.3 3.6-19.4-1.1-.1 2.6-5.5-1.1-1.2.1-1.1 2.5-19.4 1.1 1.2 1.1.1.1-2.3-.7-5.8 1.8-10.3.2-3.4 1.1.1 1.1 1.2 1.2-1.1 1.1.1 1.1 1.1 1.2-1.1 3.4.3 40.6-.7zm-57.5 50.2l-.5 8 1.1.1.5-8-1.1-.1zm37.9 1.5h1.1l-.1 1.1-20.8 2.1-1.1-1.3.1-1.1 10.4-.5-.1 1.1 10.5-1.4zM316.1 6h4.6l3.4 2.3 8-1.1c13.3 0 25.5 7.7 36.8 23l5.7 11.5-1.1 1.1 1.1 5.7v5.7c0 19.7-16.1 34.6-48.3 44.8l-11.5 1.1c0-1.9-1.5-3.1-4.6-3.4v4.6h-3.4v-6.9l-1.1-1.1 1.1-1.1v-1.1c-4.6-3.2-6.9-5.8-6.9-8 2.3-34.7 6.1-60 11.5-75.8h1.1l1.1 1.1 2.5-2.4zm-11.5 88.5h1.1v1.1l-2.3 2.3h-1.1v-1.1l2.3-2.3zm6.9-77l-5.7 33.3V52h1.1l5.7-32.2v-2.3h-1.1zm5.7 70.1l1.1 3.4h2.3l2.3-2.3v-1.1h-1.1l-3.4 1.1-1.2-1.1zm12.7-62c0 1.5-1.5 2.3-4.6 2.3-3.1 14-5.4 30.1-6.9 48.3 4.5 0 15.9-3.8 34.5-11.5v-1.1h-2.3c6.1-6.3 9.2-12.8 9.2-19.5v-3.4c0-8.4-5.7-13.4-17.2-14.9-.1-.2-12.7-.2-12.7-.2zm-3.5 60.9v1.1h4.6l5.7-2.3v-1.1h-1.1l-9.2 2.3zm26.4-60.9v1.1l4.6 2.3v-1.1l-3.4-2.3h-1.2zm0 54c1.8-.3 4.5-2.6 8-6.9v-1.1l-8 8zm6.9-20.7l-2.3 4.6h1.1l2.3-4.6h-1.1zm3.5-17.2L362 55.4h2.3V52l1.1-4.6-1.1-5.7h-1.1zm8 9.1l-5.7 18.4v1.1h1.1l5.7-17.2v-2.3h-1.1zm28.5 2c4.5 2.3 6.7 5.6 6.7 9.8l3.7 5.5 1.8-1.8h.6L410 70l.6.6h.6c9.1-10.6 15.1-15.9 17.8-15.9 1.5 0 2.7 1 3.7 3.1 1.2 0 1.8.4 1.8 1.2 0 1.5-3.5 5-10.4 10.4l-8.6 9.2v1.2c3.7 6.1 6.7 12.8 9.2 20.2l-.6 1.8h.6l-3.1 4.3h-1.8v-1.2l-1.8 1.2-8-19h-.6c-4 4.8-8.1 11.8-12.3 20.8H396v-1.2l.6-.6-.6-.6v-.6c2-5 5.7-11.7 11-20.2h.6v-1.8c-8.2 11.3-12.3 18.4-12.3 21.4l-2.5 1.2c-1.3 0-2.8-1.4-4.3-4.3 0-2.3 4.9-10.9 14.7-25.7-3.7-7-6-12.3-6.7-15.9h.6l-2.5-6.1h.6l.8.5 3.7-1.2zm-9.8 48.4l13.5-21.4c.8 0 1.2-.8 1.2-2.5h-.6c-7.3 9.5-12 17.4-14.1 23.9zM416.2 62h.6l-4.3 4.3v-.6l3.7-3.7zm1.2 9.2l-1.2 1.8h.6l1.2-1.8h-.6zm8.6-17.8h.6l-9.2 8.6h-.6v-.6l9.2-8zm-8 47.8v.6l.6 2.5h.6v-2.5l-.6-.6h-.6zM20.2 124.4h2.3l3.2 2.3.1-1.1c4.1.8 7 2.7 8.7 5.7 2.7 0 5.4 8 8.2 24.1l15.9-24.1 1.2-1.1H61l-.1 1.1L44.6 160h2.3c12-23.7 19.2-35.6 21.5-35.6l3.2 2.3.1-1.1c3.3 0 7.2 3.8 11.7 11.5l-.3 3.4-1.2 1.1 1 1.1-.4 4.6h-2.3l1.7 6.9-2.2 12.6-.3 3.4 1.1 1.1-.1 1.1-2.4 2.3 2 2.3-2.4 2.3 2 2.3-1.2 1.1h-1.1l1.1 1.1-2.8 32.2c-2.3 0-3.5 1.1-3.7 3.4-2.3 0-3.6 1.9-4 5.7h-3.4l-6.5-4.6 1.8-6.9-1.7-6.9 7.8-49.4c-3.8 4-8 12.4-12.6 25.3-.4 4.5-2.2 7.5-5.4 9.2h-1.1l.1-1.2 1.3-1.1.1-1.1-1.1-1.1 2.5-2.3.3-3.4h-2.3c-.3 4.2-2.1 7.3-5.4 9.2h-1.1l-5.2-5.7c-2 0-3.2-3.4-3.6-10.3-3.9-8-5.7-13.7-5.4-17.2h-1.1l-2.4 13.8-.8 9.2-1.4 3.4.6 5.7-2.2 25.3c-1.5 0-2.4 1.1-2.6 3.4l-6.2 5.7H9.1l-7.8-3.4L3 215v-12.5l.5-5.7 1.2-1.1-1-1.1.1-1.1c1-11.7 3.3-24.4 6.8-37.9h1.1l-1.1-1.1.1-1.1 1.6-4.6-.8-4.6.1-1.1h1.1l-.2 2.3h1.1l.3-3.4-1.1-1.1 4.2-8 .3-3.4-1.3 1.1h-1l-1-1.1.3-3.4h1.1l1.1 1.1h1.1l2.6-2.8zm28.7 51.7l.9 3.4H51c.3-4.1 5-14.4 14.2-31l1.6-5.7c-5.7 7.1-11.7 18.2-17.9 33.3zm13.8-52.9H65l-.2 2.3-2.7 4.6-1-1.1H60l2.7-5.8zm-.8 88.5l-.8 9.2h1.1l1.7-5.7-.9-3.4-1.1-.1zm7.5-59.8l-1.2 1.1-2.6 28.7h1.1l3.3-24.1-1.1-1.1H70l-1-1.1.1-1.1 1.3-1.1.1-1.1-1.1-.2zm77.9-27.1l5.5 3.9c-1.6 6.8-4.6 10.1-8.8 9.8l-30 1.4-.1 2.3 5.7.4 7-.7 1.1 1.3 1.1.1 8.1-.7 2.3.2-.1 1.1-26.7 2.8-2.1 14.9 1.1.1 31.2-2.5 1 1.2-.1 1.1-2.3-.2v1.1l7.9 1.8-.1 1.1c-1.7 4.3-12.7 7.7-33 10.4l-11.6.4 1.1 1.1-5.5 14.6h-1.1l.7-10.3-1.1-.1-2.2 15.9c22.9-3.1 39.1-4.3 48.6-3.6l5.6 1.6-.1 2.3-2.3-.1 1 1.2-.2 3.4c-2.2 2.9-6.9 4.1-14.1 3.6l-.1 1.1 9.2.6-.2 2.3-53.5 7.8-1.1-.1c-3.7-.8-5.5-2-5.5-3.6v-.2l.2-3.4 3.2-12.4-1.1-1.2 2.3.1-.4 5.7 1.1.1c.4-3.8 1.4-5.7 2.7-5.5l-1.1-1.3.8-11.4-2.3-.2-1.6 5.7 1.3-1.1 1.1.1-.5 6.9-1.1-.1.2-3.4-1.1-.1-.1 2.3-1.1-.1.1-2.3 3.6-19.4-1.1-.1 2.6-5.5-1.1-1.2.1-1.1 2.5-19.4 1.1 1.2 1.1.1.1-2.3-.7-5.8 1.8-10.3.2-3.4 1.1.1 1.1 1.2 1.2-1.1 1.1.1 1.1 1.1 1.2-1.1 3.4.3 40.7-.6zm-57.5 50.3l-.5 8 1.1.1.5-8-1.1-.1zm37.9 1.4h1.1l-.1 1.1-20.8 2.1-1.1-1.3.1-1.1 10.4-.5-.1 1.1 10.5-1.4zm66.8-50.1h1.1c11.1 0 19.6 4.6 25.3 13.8v1.1h-2.3l1.1 1.1v1.1c-4.6-.5-6.9-1.3-6.9-2.3-17.9 0-31.3 9.2-40.2 27.6l-2.3 8 3.4 21.8h3.4c9.6 0 20.3-6.9 32.2-20.7h1.1v1.1c-8.2 11.8-17.3 18.7-27.6 20.7v1.1h1.1c8 0 18-6.9 29.9-20.7l3.4 4.6v3.4c0 2.5-5.7 8.2-17.2 17.2l-1.1 1.1h-.9v2.3c13-6.4 19.5-10.9 19.5-13.8h2.3v1.1c-9.6 11.5-20.7 17.2-33.3 17.2v1.1h5.7l4.6-1.1h1.1v1.1l-13.8 2.2c-5.8 0-11.9-4.2-18.4-12.6v1.1l5.7 9.2v1.1H168c-7.1-4.9-11.3-11-12.6-18.3l-1.1-14.9c0-19.2 3.8-31.4 11.5-36.8v1.1l-6.9 11.5v1.1h1.1c0-7.3 9.6-17.6 28.7-31l-3.4 1.1h-1.1V128l10.3-1.6zm-36.8 67.8v3.4l1.1 4.6h1.1v-1.1l-1.1-6.9h-1.1zm13.8-55.2v1.1l-5.7 5.7v-1.1l5.7-5.7zm10.4-8h1.1v1.1l-8 3.4c0-1.4 2.3-3 6.9-4.5zm55.7-6.8h1.1v3.4h1.1v-2.3h4.6c1.5 0 2.3 2.3 2.3 6.9l3.4 1.1c0-2.3.8-3.4 2.3-3.4l1.1 1.1v1.1l-5.7 31L265 162h11.5l1.1-5.7-1.1-1.1h2.3l-1.1-8V146h2.3l-1.1-1.1v-2.3h2.3v-2.3h-2.3v-1.1h2.3l-1.1-1.1v-8l1.1 1.1h1.1v-4.6l-1.1-1.1v-1.1h3.4l-5.7 39.1c1.5 0 3.8-12.6 6.9-37.9l4.6-1.1c.8 6.1 1.9 9.2 3.4 9.2h1.1c0-2.3.8-3.4 2.3-3.4h1.1c-3.8 26.5-9.6 57.5-17.2 93.1H280l-1.1-1.1 1.1-1.1V212h-1.1l-3.4 11.5H272c-1.5 0-2.3-2.3-2.3-6.9h-1.1v4.6h-1.1c-1.5 0-2.3-1.1-2.3-3.4 0-5.5 2.3-18.6 6.9-39.1H271l-14.9 1.1-10.3-1.1c-2.3 18.4-4.6 30.6-6.9 36.8h-3.4c-1.5 0-2.3-3.1-2.3-9.2h-1.1l-1.1 8-2.3-2.3v-4l1.1-1.1v-1.1l-1.1-1.1h-1.1l-1.1 1.1h-1.1l-1.1-4.6c3.1-25.9 6.5-44.6 10.3-56.3h1.1l-1.1-1.1v-3.4l3.4-12.6h-1.1l.7-3.6zm-12.7 82.7h1.1v5.7h-1.1v-5.7zm6.9-39.1v4.6h1.1v-4.6h-1.1zm2.3-11.5L233 162v1.1h1.1l1.1-4.6v-2.3h-1.1zm1.2-5.7v4.6h1.1v-4.6h-1.1zm2.3-12.7l-1.1 9.2v2.3h1.1l1.1-9.2v-2.3h-1.1zm1.1-9.1v8h1.1v-8h-1.1zm34.5 59.7v4.6h1.1v-4.6h-1.1zm2.3-9.2l-1.1 6.9v1.1h1.1l1.1-5.7v-2.3h-1.1zm5.7 21.8l-1.1 5.7v3.4h1.1l1.1-8v-1.1h-1.1zm80.8-76.3l5.5 3.9c-1.6 6.8-4.6 10.1-8.8 9.8l-30 1.4-.1 2.3 5.7.4 7-.7 1.1 1.3 1.1.1 8.1-.7 2.3.2-.1 1.1-26.7 2.8-2.1 14.9 1.1.1 31.2-2.5 1 1.2-.1 1.1-2.3-.2v1.1l7.9 1.8-.1 1.1c-1.7 4.3-12.7 7.7-33 10.4l-11.6.4 1.1 1.1-5.5 14.6h-1.1l.7-10.3-1.1-.1-2.2 15.9c22.9-3.1 39.1-4.3 48.6-3.6l5.6 1.6-.1 2.3-2.3-.1 1 1.2-.2 3.4c-2.2 2.9-6.9 4.1-14.1 3.6l-.1 1.1 9.2.6-.2 2.3-53.5 7.8-1.1-.1c-3.7-.8-5.5-2-5.5-3.6v-.2l.2-3.4 3.2-12.4-1.1-1.2 2.3.1-.4 5.7 1.1.1c.5-3.8 1.4-5.7 2.7-5.5l-1.1-1.3.8-11.4-2.3-.2-1.6 5.7 1.3-1.1 1.1.1-.5 6.9-1.1-.1.2-3.4-1.1-.1-.1 2.3-1.1-.1.1-2.3 3.6-19.4-1.1-.1 2.6-5.5-1.1-1.2.1-1.1 2.5-19.4 1.1 1.2 1.1.1.1-2.3-.7-5.8 1.8-10.3.2-3.4 1.1.1 1.1 1.2 1.2-1.1 1.1.1 1.1 1.1 1.2-1.1 3.4.3 40.7-.6zm-57.5 50.3l-.5 8 1.1.1.5-8-1.1-.1zm37.9 1.4h1.1l-.1 1.1-20.8 2.1-1.1-1.3.1-1.1 10.4-.5-.1 1.1 10.5-1.4zm43.2-52.3c1.5 0 2.3 2.3 2.3 6.9h2.3l3.4-2.3 1.1 1.1-5.7 64.3c4.9-2.3 17.9-5 39.1-8h1.1v1.1c-26.8 4.4-40.2 7.8-40.2 10.3l12.6-3.4v1.1l21.8-4.6v1.1l1.1-1.1h1.1l1.1 1.1 5.7-1.1h4.6l8 1.1v1.1c0 2.3-5.7 4.2-17.2 5.7v1.1l1.1-1.1h1.1l8 1.1 1.1-1.1v3.4l-37.9 9.2-24.1 9.2h-3.4l-4.6-5.7H368v-1.1c0-1.9 1.5-3.1 4.6-3.4v-3.4l-3.4-4.6 4.6-51.7h1.1v4.6l-1.1 8h2.3l-2.3 14.9 1.1 1.1-1.1 4.6v5.7h1.1l4.6-60.9c1.5 0 2.3-1.1 2.3-3.4l1.1-1.1 2.7.2z"/><path class="st0" d="M503.2 124.8l5.5 3.9c-1.6 6.8-4.6 10.1-8.8 9.8l-30 1.4-.1 2.3 5.7.4 7-.7 1.1 1.3 1.1.1 8.1-.7 2.3.2-.1 1.1-26.7 2.8-2.1 14.9 1.1.1 31.2-2.5 1 1.2-.1 1.1-2.3-.2v1.1l7.9 1.8-.1 1.1c-1.7 4.3-12.7 7.7-33 10.4l-11.6.4 1.1 1.1-5.5 14.6h-.9l.7-10.3-1.1-.1-2.2 15.9c22.9-3.1 39.1-4.3 48.6-3.6l5.6 1.6-.1 2.3-2.3-.1 1 1.2-.2 3.4c-2.2 2.9-6.9 4.1-14.1 3.6l-.1 1.1 9.2.6-.2 2.3-53.5 7.8-1.1-.1c-3.7-.8-5.5-2-5.5-3.6v-.2l.2-3.4L443 198l-1.1-1.2 2.3.1-.4 5.7 1.1.1c.5-3.8 1.4-5.7 2.7-5.5l-1.1-1.3.8-11.4-2.3-.2-1.6 5.7 1.3-1.1 1.1.1-.5 6.9-1.1-.1.2-3.4-1.1-.1-.1 2.3-1.1-.1.1-2.3 3.6-19.4-1.1-.1 2.6-5.5-1.1-1.2.1-1.1 2.5-19.4 1.1 1.2 1.1.1.1-2.3-.7-5.8 1.8-10.3.2-3.4 1.1.1 1.1 1.2 1.2-1.1 1.1.1 1.1 1.1 1.2-1.1 3.4.3 40.6-.8zm-57.5 50.3l-.5 8 1.1.1.5-8-1.1-.1zm37.9 1.4h1.1l-.1 1.1-20.8 2.1-1.1-1.3.1-1.1 10.4-.5-.1 1.1 10.5-1.4zm48.9-51.1l8 6.9c0-2.3.8-3.4 2.3-3.4h1.1l16.1 41.4v2.3h-1.1l-2.3-6.9h-1.1v2.3l8 19.5h1.1c3.1-19.9 7.5-40.7 13.2-62.4l3.4 2.3 3.4-1.1 6.9 3.4v1.1c-2.3 0-3.4 1.5-3.4 4.6h1.1l1.1 1.1h1.1l1.1-5.7h2.3v1.1l-1.1 1.1 1.1 1.1v1.1c-5.8 17.7-10.9 43.1-15.5 76.2H577l2.3-18.4c-1.5 0-3.8 7.3-6.9 21.8-2.8 2.3-5.5 3.4-8 3.4v2.3h-1.1c0-1.5-1.5-2.3-4.6-2.3v-8c0-3.5-7.7-22.6-23-57.4h-1.1c-3.1 13.7-5.7 32-8 55.1l-1.1-1.1c-4.6 1.4-6.9 3.3-6.9 5.7h-2.3c-1.5-2.9-2.3-7.9-2.3-14.9h-1.1v10.3h-2.3l-1.1-5.7c0-20.8 4.6-46.1 13.8-75.8l9.2-1zm-16.1 28.7v1.1l1.1 1.1-1.1 1.1v2.3h1.1l1.1-4.6-1.1-1.1-1.1.1zm43.6 18.4c2 0 3.5 3.1 4.6 9.2v1.1h-1.1l-3.5-10.3z"/></svg>