<?xml version="1.0" encoding="utf-8"?>
<!-- Generator: Adobe Illustrator 20.1.0, SVG Export Plug-In . SVG Version: 6.00 Build 0)  -->
<svg version="1.1" id="Laag_1" xmlns="http://www.w3.org/2000/svg" xmlns:xlink="http://www.w3.org/1999/xlink" x="0px" y="0px"
	 viewBox="0 0 596.4 225.9" style="enable-background:new 0 0 596.4 225.9;" xml:space="preserve">
<style type="text/css">
	.st0{fill:#FFFFFF;}
</style>
<g>
	<path class="st0" d="M237.7,4.3l3.4,1.1v2.3h-3.4l2.3,3.4c-1.7,3.8-7.8,5.7-18.4,5.7l-8,1.1l-1.1,3.4h1.1
		c-2.3,5.5-6.9,30-13.8,73.5l3.4,14.9h-1.1c-1.7,0-3.2-3.8-4.6-11.5l1.1-11.5v-1.1h-1.1v2.3c-2.3,0-3.4,0.8-3.4,2.3v1.1l2.3,18.4
		v1.1H194l-4.6-3.4l-1.1,1.1h-1.1c-3.1-6.6-4.6-12.4-4.6-17.2l1.1,1.1h1.1l-2.3-8l3.4-1.1v-5.7h-2.3v-1.1c2.3,0,3.4-0.8,3.4-2.3
		v-1.1h-2.3c0-6.1,1.1-9.2,3.4-9.2V49.1c1.2-1.1,2.7-9.1,4.6-24.1l-8,1.1L168.7,25v-1.1l5.7-1.1v1.1l1.1-1.1h17.2v-3.4l-18.4,2.3
		l-1.1-1.1h-1.1l-6.9,1.1l-3.4-2.3l1.1-5.7l-1.1-1.1c0-3.8,4.6-5.7,13.8-5.7L237.7,4.3z M188.3,72.1L186,97.3h2.3l-1.1-5.7v-2.3
		l2.3-3.4h-1.1l1.1-1.1v-1.1l-1.1-1.1v-1.1l2.3-4.6l-1.1-4.6C189.4,72.1,188.3,72.1,188.3,72.1z M230.8,7.7v1.1h4.6V7.7H230.8z"/>
	<path class="st0" d="M293.2,6.4l5.5,3.9c-1.6,6.8-4.6,10.1-8.8,9.8l-30,1.4l-0.1,2.3l5.7,0.4l7-0.7l1.1,1.3l1.1,0.1l8.1-0.7
		l2.3,0.2l-0.1,1.1l-26.7,2.8l-2.1,14.9l1.1,0.1l31.2-2.5l1,1.2l-0.1,1.1l-2.3-0.2V44l7.9,1.8l-0.1,1.1c-1.7,4.3-12.7,7.7-33,10.4
		l-11.6,0.4l1.1,1.1l-5.5,14.6H245l0.7-10.3l-1.1-0.1L242.3,79c22.9-3.1,39.1-4.3,48.6-3.6l5.6,1.6l-0.1,2.3l-2.3-0.1l1,1.2
		l-0.2,3.4c-2.2,2.9-6.9,4.1-14.1,3.6l-0.1,1.1l9.2,0.6l-0.2,2.3l-53.5,7.8l-1.1-0.1c-3.7-0.8-5.5-2-5.5-3.6v-0.2l0.2-3.4l3.2-12.4
		l-1.1-1.2l2.3,0.1l-0.4,5.7l1.1,0.1c0.4-3.8,1.4-5.7,2.7-5.5l-1.1-1.3l0.8-11.4l-2.3-0.2l-1.6,5.7l1.3-1.1l1.1,0.1l-0.5,6.9
		l-1.1-0.1l0.2-3.4l-1.1-0.1l-0.1,2.3l-1.1-0.1l0.1-2.3l3.6-19.4l-1.1-0.1l2.6-5.5l-1.1-1.2l0.1-1.1l2.5-19.4l1.1,1.2l1.1,0.1
		l0.1-2.3l-0.7-5.8l1.8-10.3l0.2-3.4l1.1,0.1l1.1,1.2l1.2-1.1l1.1,0.1l1.1,1.1l1.2-1.1l3.4,0.3L293.2,6.4z M235.7,56.6l-0.5,8
		l1.1,0.1l0.5-8L235.7,56.6z M273.6,58.1h1.1l-0.1,1.1l-20.8,2.1l-1.1-1.3l0.1-1.1l10.4-0.5l-0.1,1.1L273.6,58.1z"/>
	<path class="st0" d="M316.1,6h4.6l3.4,2.3l8-1.1c13.3,0,25.5,7.7,36.8,23l5.7,11.5l-1.1,1.1l1.1,5.7v5.7
		c0,19.7-16.1,34.6-48.3,44.8l-11.5,1.1c0-1.9-1.5-3.1-4.6-3.4v4.6h-3.4v-6.9l-1.1-1.1l1.1-1.1v-1.1c-4.6-3.2-6.9-5.8-6.9-8
		c2.3-34.7,6.1-60,11.5-75.8h1.1l1.1,1.1L316.1,6z M304.6,94.5h1.1v1.1l-2.3,2.3h-1.1v-1.1L304.6,94.5z M311.5,17.5l-5.7,33.3V52
		h1.1l5.7-32.2v-2.3C312.6,17.5,311.5,17.5,311.5,17.5z M317.2,87.6l1.1,3.4h2.3l2.3-2.3v-1.1h-1.1l-3.4,1.1L317.2,87.6z
		 M329.9,25.6c0,1.5-1.5,2.3-4.6,2.3c-3.1,14-5.4,30.1-6.9,48.3c4.5,0,15.9-3.8,34.5-11.5v-1.1h-2.3c6.1-6.3,9.2-12.8,9.2-19.5v-3.4
		c0-8.4-5.7-13.4-17.2-14.9C342.5,25.6,329.9,25.6,329.9,25.6z M326.4,86.5v1.1h4.6l5.7-2.3v-1.1h-1.1L326.4,86.5z M352.8,25.6v1.1
		l4.6,2.3v-1.1l-3.4-2.3H352.8z M352.8,79.6c1.8-0.3,4.5-2.6,8-6.9v-1.1L352.8,79.6z M359.7,58.9l-2.3,4.6h1.1l2.3-4.6H359.7z
		 M363.2,41.7L362,55.4h2.3V52l1.1-4.6l-1.1-5.7H363.2z M371.2,50.8l-5.7,18.4v1.1h1.1l5.7-17.2v-2.3
		C372.4,50.8,371.2,50.8,371.2,50.8z"/>
	<path class="st0" d="M399.7,52.8c4.5,2.3,6.7,5.6,6.7,9.8l3.7,5.5l1.8-1.8h0.6l-2.5,3.7l0.6,0.6h0.6c9.1-10.6,15.1-15.9,17.8-15.9
		c1.5,0,2.7,1,3.7,3.1c1.2,0,1.8,0.4,1.8,1.2c0,1.5-3.5,5-10.4,10.4l-8.6,9.2v1.2c3.7,6.1,6.7,12.8,9.2,20.2l-0.6,1.8h0.6l-3.1,4.3
		h-1.8v-1.2l-1.8,1.2l-8-19h-0.6c-4,4.8-8.1,11.8-12.3,20.8H396v-1.2l0.6-0.6l-0.6-0.6v-0.6c2-5,5.7-11.7,11-20.2h0.6v-1.8
		c-8.2,11.3-12.3,18.4-12.3,21.4l-2.5,1.2c-1.3,0-2.8-1.4-4.3-4.3c0-2.3,4.9-10.9,14.7-25.7c-3.7-7-6-12.3-6.7-15.9h0.6l-2.5-6.1
		h0.6L396,54L399.7,52.8z M389.9,101.2l13.5-21.4c0.8,0,1.2-0.8,1.2-2.5h-0.6C396.7,86.8,392,94.7,389.9,101.2z M416.2,62h0.6
		l-4.3,4.3v-0.6L416.2,62z M417.4,71.2l-1.2,1.8h0.6l1.2-1.8H417.4z M426,53.4h0.6l-9.2,8.6h-0.6v-0.6L426,53.4z M418,101.2v0.6
		l0.6,2.5h0.6v-2.5l-0.6-0.6H418z"/>
	<path class="st0" d="M20.2,124.4h2.3l3.2,2.3l0.1-1.1c4.1,0.8,7,2.7,8.7,5.7c2.7,0,5.4,8,8.2,24.1l15.9-24.1l1.2-1.1H61l-0.1,1.1
		L44.6,160h2.3c12-23.7,19.2-35.6,21.5-35.6l3.2,2.3l0.1-1.1c3.3,0,7.2,3.8,11.7,11.5l-0.3,3.4l-1.2,1.1l1,1.1l-0.4,4.6h-2.3
		l1.7,6.9l-2.2,12.6l-0.3,3.4l1.1,1.1l-0.1,1.1l-2.4,2.3l2,2.3l-2.4,2.3l2,2.3l-1.2,1.1h-1.1l1.1,1.1l-2.8,32.2
		c-2.3,0-3.5,1.1-3.7,3.4c-2.3,0-3.6,1.9-4,5.7h-3.4l-6.5-4.6l1.8-6.9l-1.7-6.9l7.8-49.4c-3.8,4-8,12.4-12.6,25.3
		c-0.4,4.5-2.2,7.5-5.4,9.2h-1.1l0.1-1.2l1.3-1.1l0.1-1.1l-1.1-1.1l2.5-2.3l0.3-3.4h-2.3c-0.3,4.2-2.1,7.3-5.4,9.2h-1.1l-5.2-5.7
		c-2,0-3.2-3.4-3.6-10.3c-3.9-8-5.7-13.7-5.4-17.2h-1.1l-2.4,13.8l-0.8,9.2l-1.4,3.4l0.6,5.7l-2.2,25.3c-1.5,0-2.4,1.1-2.6,3.4
		l-6.2,5.7H9.1l-7.8-3.4l1.7-5.7L3,202.5l0.5-5.7l1.2-1.1l-1-1.1l0.1-1.1c1-11.7,3.3-24.4,6.8-37.9h1.1l-1.1-1.1l0.1-1.1l1.6-4.6
		l-0.8-4.6l0.1-1.1h1.1l-0.2,2.3h1.1l0.3-3.4l-1.1-1.1l4.2-8l0.3-3.4l-1.3,1.1H15l-1-1.1l0.3-3.4h1.1l1.1,1.1h1.1L20.2,124.4z
		 M48.9,176.1l0.9,3.4H51c0.3-4.1,5-14.4,14.2-31l1.6-5.7C61.1,149.9,55.1,161,48.9,176.1z M62.7,123.2H65l-0.2,2.3l-2.7,4.6l-1-1.1
		H60L62.7,123.2z M61.9,211.7l-0.8,9.2h1.1l1.7-5.7l-0.9-3.4L61.9,211.7L61.9,211.7z M69.4,151.9l-1.2,1.1l-2.6,28.7h1.1l3.3-24.1
		l-1.1-1.1h1.1l-1-1.1l0.1-1.1l1.3-1.1l0.1-1.1L69.4,151.9L69.4,151.9z"/>
	<path class="st0" d="M147.3,124.8l5.5,3.9c-1.6,6.8-4.6,10.1-8.8,9.8l-30,1.4l-0.1,2.3l5.7,0.4l7-0.7l1.1,1.3l1.1,0.1l8.1-0.7
		l2.3,0.2l-0.1,1.1l-26.7,2.8l-2.1,14.9l1.1,0.1l31.2-2.5l1,1.2l-0.1,1.1l-2.3-0.2v1.1l7.9,1.8l-0.1,1.1c-1.7,4.3-12.7,7.7-33,10.4
		l-11.6,0.4l1.1,1.1l-5.5,14.6h-1.1l0.7-10.3l-1.1-0.1l-2.2,15.9c22.9-3.1,39.1-4.3,48.6-3.6l5.6,1.6l-0.1,2.3l-2.3-0.1l1,1.2
		l-0.2,3.4c-2.2,2.9-6.9,4.1-14.1,3.6l-0.1,1.1l9.2,0.6l-0.2,2.3l-53.5,7.8l-1.1-0.1c-3.7-0.8-5.5-2-5.5-3.6v-0.2l0.2-3.4l3.2-12.4
		l-1.1-1.2l2.3,0.1l-0.4,5.7l1.1,0.1c0.4-3.8,1.4-5.7,2.7-5.5l-1.1-1.3l0.8-11.4l-2.3-0.2l-1.6,5.7l1.3-1.1l1.1,0.1l-0.5,6.9
		l-1.1-0.1l0.2-3.4l-1.1-0.1l-0.1,2.3l-1.1-0.1l0.1-2.3l3.6-19.4l-1.1-0.1l2.6-5.5l-1.1-1.2l0.1-1.1l2.5-19.4l1.1,1.2l1.1,0.1
		l0.1-2.3l-0.7-5.8l1.8-10.3l0.2-3.4l1.1,0.1l1.1,1.2l1.2-1.1l1.1,0.1l1.1,1.1l1.2-1.1l3.4,0.3L147.3,124.8z M89.8,175.1l-0.5,8
		l1.1,0.1l0.5-8L89.8,175.1z M127.7,176.5h1.1l-0.1,1.1l-20.8,2.1l-1.1-1.3l0.1-1.1l10.4-0.5l-0.1,1.1L127.7,176.5z"/>
	<path class="st0" d="M194.5,126.4h1.1c11.1,0,19.6,4.6,25.3,13.8v1.1h-2.3l1.1,1.1v1.1c-4.6-0.5-6.9-1.3-6.9-2.3
		c-17.9,0-31.3,9.2-40.2,27.6l-2.3,8l3.4,21.8h3.4c9.6,0,20.3-6.9,32.2-20.7h1.1v1.1c-8.2,11.8-17.3,18.7-27.6,20.7v1.1h1.1
		c8,0,18-6.9,29.9-20.7l3.4,4.6v3.4c0,2.5-5.7,8.2-17.2,17.2l-1.1,1.1H198v2.3c13-6.4,19.5-10.9,19.5-13.8h2.3v1.1
		c-9.6,11.5-20.7,17.2-33.3,17.2v1.1h5.7l4.6-1.1h1.1v1.1l-13.8,2.2c-5.8,0-11.9-4.2-18.4-12.6v1.1l5.7,9.2v1.1h-3.4
		c-7.1-4.9-11.3-11-12.6-18.3l-1.1-14.9c0-19.2,3.8-31.4,11.5-36.8v1.1l-6.9,11.5v1.1h1.1c0-7.3,9.6-17.6,28.7-31l-3.4,1.1h-1.1
		v-1.1L194.5,126.4z M157.7,194.2v3.4l1.1,4.6h1.1v-1.1l-1.1-6.9H157.7z M171.5,139v1.1l-5.7,5.7v-1.1L171.5,139z M181.9,131h1.1
		v1.1l-8,3.4C175,134.1,177.3,132.5,181.9,131z"/>
	<path class="st0" d="M237.6,124.2h1.1v3.4h1.1v-2.3h4.6c1.5,0,2.3,2.3,2.3,6.9l3.4,1.1c0-2.3,0.8-3.4,2.3-3.4l1.1,1.1v1.1l-5.7,31
		l17.2-1.1h11.5l1.1-5.7l-1.1-1.1h2.3l-1.1-8V146h2.3l-1.1-1.1v-2.3h2.3v-2.3h-2.3v-1.1h2.3l-1.1-1.1v-8l1.1,1.1h1.1v-4.6l-1.1-1.1
		v-1.1h3.4l-5.7,39.1c1.5,0,3.8-12.6,6.9-37.9l4.6-1.1c0.8,6.1,1.9,9.2,3.4,9.2h1.1c0-2.3,0.8-3.4,2.3-3.4h1.1
		c-3.8,26.5-9.6,57.5-17.2,93.1h-1.1l-1.1-1.1l1.1-1.1v-9.2h-1.1l-3.4,11.5H272c-1.5,0-2.3-2.3-2.3-6.9h-1.1v4.6h-1.1
		c-1.5,0-2.3-1.1-2.3-3.4c0-5.5,2.3-18.6,6.9-39.1h-1.1l-14.9,1.1l-10.3-1.1c-2.3,18.4-4.6,30.6-6.9,36.8h-3.4
		c-1.5,0-2.3-3.1-2.3-9.2h-1.1l-1.1,8l-2.3-2.3V208l1.1-1.1v-1.1l-1.1-1.1h-1.1l-1.1,1.1h-1.1l-1.1-4.6c3.1-25.9,6.5-44.6,10.3-56.3
		h1.1l-1.1-1.1v-3.4l3.4-12.6h-1.1L237.6,124.2z M224.9,206.9h1.1v5.7h-1.1V206.9z M231.8,167.8v4.6h1.1v-4.6H231.8z M234.1,156.3
		l-1.1,5.7v1.1h1.1l1.1-4.6v-2.3H234.1z M235.3,150.6v4.6h1.1v-4.6H235.3z M237.6,137.9l-1.1,9.2v2.3h1.1l1.1-9.2v-2.3H237.6z
		 M238.7,128.8v8h1.1v-8H238.7z M273.2,188.5v4.6h1.1v-4.6H273.2z M275.5,179.3l-1.1,6.9v1.1h1.1l1.1-5.7v-2.3H275.5z M281.2,201.1
		l-1.1,5.7v3.4h1.1l1.1-8v-1.1L281.2,201.1L281.2,201.1z"/>
	<path class="st0" d="M362,124.8l5.5,3.9c-1.6,6.8-4.6,10.1-8.8,9.8l-30,1.4l-0.1,2.3l5.7,0.4l7-0.7l1.1,1.3l1.1,0.1l8.1-0.7
		l2.3,0.2l-0.1,1.1l-26.7,2.8l-2.1,14.9l1.1,0.1l31.2-2.5l1,1.2l-0.1,1.1l-2.3-0.2v1.1l7.9,1.8l-0.1,1.1c-1.7,4.3-12.7,7.7-33,10.4
		l-11.6,0.4l1.1,1.1l-5.5,14.6h-1.1l0.7-10.3l-1.1-0.1l-2.2,15.9c22.9-3.1,39.1-4.3,48.6-3.6l5.6,1.6l-0.1,2.3l-2.3-0.1l1,1.2
		l-0.2,3.4c-2.2,2.9-6.9,4.1-14.1,3.6l-0.1,1.1l9.2,0.6l-0.2,2.3l-53.5,7.8l-1.1-0.1c-3.7-0.8-5.5-2-5.5-3.6v-0.2l0.2-3.4l3.2-12.4
		l-1.1-1.2l2.3,0.1l-0.4,5.7l1.1,0.1c0.5-3.8,1.4-5.7,2.7-5.5l-1.1-1.3l0.8-11.4l-2.3-0.2l-1.6,5.7l1.3-1.1l1.1,0.1l-0.5,6.9
		l-1.1-0.1l0.2-3.4l-1.1-0.1l-0.1,2.3l-1.1-0.1l0.1-2.3l3.6-19.4l-1.1-0.1l2.6-5.5l-1.1-1.2l0.1-1.1l2.5-19.4l1.1,1.2l1.1,0.1
		l0.1-2.3l-0.7-5.8l1.8-10.3l0.2-3.4l1.1,0.1l1.1,1.2l1.2-1.1l1.1,0.1l1.1,1.1l1.2-1.1l3.4,0.3L362,124.8z M304.5,175.1l-0.5,8
		l1.1,0.1l0.5-8L304.5,175.1z M342.4,176.5h1.1l-0.1,1.1l-20.8,2.1l-1.1-1.3l0.1-1.1l10.4-0.5l-0.1,1.1L342.4,176.5z"/>
	<path class="st0" d="M385.6,124.2c1.5,0,2.3,2.3,2.3,6.9h2.3l3.4-2.3l1.1,1.1l-5.7,64.3c4.9-2.3,17.9-5,39.1-8h1.1v1.1
		c-26.8,4.4-40.2,7.8-40.2,10.3l12.6-3.4v1.1l21.8-4.6v1.1l1.1-1.1h1.1l1.1,1.1l5.7-1.1h4.6l8,1.1v1.1c0,2.3-5.7,4.2-17.2,5.7v1.1
		l1.1-1.1h1.1l8,1.1l1.1-1.1v3.4l-37.9,9.2l-24.1,9.2h-3.4l-4.6-5.7h-1.1v-1.1c0-1.9,1.5-3.1,4.6-3.4v-3.4l-3.4-4.6l4.6-51.7h1.1
		v4.6l-1.1,8h2.3l-2.3,14.9l1.1,1.1l-1.1,4.6v5.7h1.1l4.6-60.9c1.5,0,2.3-1.1,2.3-3.4l1.1-1.1L385.6,124.2L385.6,124.2z"/>
	<path class="st0" d="M503.2,124.8l5.5,3.9c-1.6,6.8-4.6,10.1-8.8,9.8l-30,1.4l-0.1,2.3l5.7,0.4l7-0.7l1.1,1.3l1.1,0.1l8.1-0.7
		l2.3,0.2l-0.1,1.1l-26.7,2.8l-2.1,14.9l1.1,0.1l31.2-2.5l1,1.2l-0.1,1.1l-2.3-0.2v1.1l7.9,1.8l-0.1,1.1c-1.7,4.3-12.7,7.7-33,10.4
		l-11.6,0.4l1.1,1.1l-5.5,14.6H455l0.7-10.3l-1.1-0.1l-2.2,15.9c22.9-3.1,39.1-4.3,48.6-3.6l5.6,1.6l-0.1,2.3l-2.3-0.1l1,1.2
		l-0.2,3.4c-2.2,2.9-6.9,4.1-14.1,3.6l-0.1,1.1l9.2,0.6l-0.2,2.3l-53.5,7.8l-1.1-0.1c-3.7-0.8-5.5-2-5.5-3.6v-0.2l0.2-3.4L443,198
		l-1.1-1.2l2.3,0.1l-0.4,5.7l1.1,0.1c0.5-3.8,1.4-5.7,2.7-5.5l-1.1-1.3l0.8-11.4l-2.3-0.2l-1.6,5.7l1.3-1.1l1.1,0.1l-0.5,6.9
		l-1.1-0.1l0.2-3.4l-1.1-0.1l-0.1,2.3l-1.1-0.1l0.1-2.3l3.6-19.4l-1.1-0.1l2.6-5.5l-1.1-1.2l0.1-1.1l2.5-19.4l1.1,1.2l1.1,0.1
		l0.1-2.3l-0.7-5.8l1.8-10.3l0.2-3.4l1.1,0.1l1.1,1.2l1.2-1.1l1.1,0.1l1.1,1.1l1.2-1.1l3.4,0.3L503.2,124.8z M445.7,175.1l-0.5,8
		l1.1,0.1l0.5-8L445.7,175.1z M483.6,176.5h1.1l-0.1,1.1l-20.8,2.1l-1.1-1.3l0.1-1.1l10.4-0.5l-0.1,1.1L483.6,176.5z"/>
	<path class="st0" d="M532.5,125.4l8,6.9c0-2.3,0.8-3.4,2.3-3.4h1.1l16.1,41.4v2.3h-1.1l-2.3-6.9h-1.1v2.3l8,19.5h1.1
		c3.1-19.9,7.5-40.7,13.2-62.4l3.4,2.3l3.4-1.1l6.9,3.4v1.1c-2.3,0-3.4,1.5-3.4,4.6h1.1l1.1,1.1h1.1l1.1-5.7h2.3v1.1l-1.1,1.1
		l1.1,1.1v1.1c-5.8,17.7-10.9,43.1-15.5,76.2h-2.3l2.3-18.4c-1.5,0-3.8,7.3-6.9,21.8c-2.8,2.3-5.5,3.4-8,3.4v2.3h-1.1
		c0-1.5-1.5-2.3-4.6-2.3v-8c0-3.5-7.7-22.6-23-57.4h-1.1c-3.1,13.7-5.7,32-8,55.1l-1.1-1.1c-4.6,1.4-6.9,3.3-6.9,5.7h-2.3
		c-1.5-2.9-2.3-7.9-2.3-14.9h-1.1v10.3h-2.3l-1.1-5.7c0-20.8,4.6-46.1,13.8-75.8L532.5,125.4z M516.4,154.1v1.1l1.1,1.1l-1.1,1.1
		v2.3h1.1l1.1-4.6l-1.1-1.1L516.4,154.1L516.4,154.1z M560,172.5c2,0,3.5,3.1,4.6,9.2v1.1h-1.1L560,172.5z"/>
</g>
</svg>
