<?xml version="1.0" encoding="iso-8859-1"?>
<!-- Generator: Adobe Illustrator 20.1.0, SVG Export Plug-In . SVG Version: 6.00 Build 0)  -->
<svg version="1.1" id="Laag_1" xmlns="http://www.w3.org/2000/svg" xmlns:xlink="http://www.w3.org/1999/xlink" x="0px" y="0px"
	 viewBox="0 0 596.437 225.852" style="enable-background:new 0 0 596.437 225.852;" xml:space="preserve">
<g>
	<path style="fill:#FFFFFF;" d="M205.864,1.642l3.447,1.149v2.298h-3.447l2.298,3.447c-1.667,3.83-7.795,5.744-18.382,5.744
		l-8.042,1.149l-1.149,3.447h1.149c-2.298,5.452-6.893,29.961-13.786,73.526l3.447,14.935h-1.149c-1.713,0-3.244-3.83-4.595-11.489
		l1.149-11.489v-1.149h-1.149v2.298c-2.298,0-3.447,0.767-3.447,2.298v1.149l2.298,18.382v1.149h-2.298l-4.595-3.447l-1.149,1.149
		h-1.149c-3.064-6.623-4.595-12.367-4.595-17.233l1.149,1.149h1.149l-2.298-8.042l3.447-1.149v-5.744h-2.298V74.02
		c2.298,0,3.447-0.766,3.447-2.298v-1.149h-2.298c0-6.126,1.149-9.191,3.447-9.191V46.448c1.216-1.081,2.747-9.123,4.595-24.126
		l-8.042,1.149l-16.084-1.149v-1.149l5.744-1.149v1.149l1.149-1.149h17.233v-3.447l-18.382,2.298l-1.149-1.149h-1.149l-6.893,1.149
		l-3.447-2.298l1.149-5.744l-1.149-1.149c0-3.829,4.595-5.744,13.786-5.744L205.864,1.642z M156.464,69.425l-2.298,25.275h2.298
		l-1.149-5.744v-2.298l2.298-3.447h-1.149l1.149-1.149v-1.149l-1.149-1.149v-1.149l2.298-4.595l-1.149-4.595H156.464z
		 M198.971,5.089v1.149h4.595V5.089H198.971z"/>
	<path style="fill:#FFFFFF;" d="M261.414,3.737l5.542,3.852c-1.622,6.803-4.551,10.069-8.785,9.799l-30.005,1.352l-0.135,2.298
		l5.677,0.405l6.961-0.676l1.081,1.284l1.149,0.068l8.11-0.676l2.298,0.203l-0.068,1.149l-26.694,2.771l-2.095,14.867l1.149,0.068
		l31.222-2.5l1.014,1.216l-0.068,1.149l-2.298-0.203v1.149l7.907,1.757l-0.068,1.149c-1.667,4.281-12.661,7.749-32.979,10.407
		l-11.556,0.405l1.081,1.149l-5.542,14.597h-1.149l0.676-10.34l-1.149-0.068l-2.23,15.949c22.932-3.063,39.129-4.28,48.59-3.649
		l5.609,1.554l-0.068,2.298l-2.298-0.135l1.014,1.216l-0.203,3.447c-2.208,2.884-6.893,4.1-14.057,3.649l-0.068,1.149l9.191,0.608
		l-0.203,2.298l-53.455,7.839l-1.149-0.068c-3.695-0.811-5.542-2.005-5.542-3.582V92.74l0.203-3.447l3.176-12.435l-1.081-1.216
		l2.298,0.068l-0.405,5.744l1.149,0.135c0.45-3.829,1.352-5.677,2.703-5.542l-1.081-1.284l0.811-11.421l-2.298-0.203l-1.554,5.677
		l1.284-1.081l1.149,0.068l-0.473,6.893l-1.149-0.135l0.203-3.379l-1.149-0.068l-0.135,2.298l-1.149-0.068l0.135-2.298l3.649-19.395
		l-1.149-0.068l2.636-5.542l-1.081-1.216l0.068-1.149l2.5-19.395l1.081,1.216l1.149,0.068l0.135-2.298l-0.743-5.812l1.825-10.272
		l0.203-3.447l1.149,0.135l1.081,1.216l1.216-1.081l1.149,0.135l1.081,1.149l1.216-1.081l3.447,0.27L261.414,3.737z M203.904,53.949
		l-0.541,8.042l1.149,0.068l0.541-7.974L203.904,53.949z M241.816,55.436h1.149l-0.135,1.149l-20.814,2.095l-1.081-1.284
		l0.068-1.081l10.407-0.473l-0.068,1.149L241.816,55.436z"/>
	<path style="fill:#FFFFFF;" d="M284.256,3.399h4.595l3.447,2.298l8.042-1.149c13.29,0,25.545,7.66,36.763,22.977l5.744,11.489
		l-1.149,1.149l1.149,5.744v5.744c0,19.689-16.084,34.624-48.252,44.805l-11.488,1.149c0-1.938-1.532-3.086-4.595-3.447v4.595
		h-3.447v-6.893l-1.149-1.149l1.149-1.149v-1.149c-4.595-3.153-6.893-5.834-6.893-8.042c2.298-34.691,6.126-59.965,11.488-75.824
		h1.149l1.149,1.149L284.256,3.399z M272.768,91.861h1.149v1.149l-2.298,2.298h-1.149v-1.149L272.768,91.861z M279.661,14.888
		l-5.744,33.317v1.149h1.149l5.744-32.168v-2.298H279.661z M285.405,84.968l1.149,3.447h2.298l2.298-2.298v-1.149h-1.149
		l-3.447,1.149L285.405,84.968z M298.043,22.93c0,1.532-1.532,2.298-4.595,2.298c-3.064,13.967-5.362,30.051-6.893,48.252
		c4.46,0,15.949-3.829,34.466-11.489v-1.149h-2.298c6.126-6.262,9.191-12.773,9.191-19.53v-3.447
		c0-8.424-5.744-13.403-17.233-14.935H298.043z M294.596,83.819v1.149h4.595l5.744-2.298v-1.149h-1.149L294.596,83.819z
		 M321.02,22.93v1.149l4.595,2.298v-1.149l-3.447-2.298H321.02z M321.02,76.926c1.801-0.27,4.482-2.568,8.042-6.893v-1.149
		L321.02,76.926z M327.913,56.247l-2.298,4.595h1.149l2.298-4.595H327.913z M331.359,39.014L330.21,52.8h2.298v-3.447l1.149-4.595
		l-1.149-5.744H331.359z M339.401,48.205l-5.744,18.382v1.149h1.149l5.744-17.233v-2.298H339.401z"/>
	<path style="fill:#FFFFFF;" d="M402.318,1.913c8.424,4.325,12.637,10.453,12.637,18.382l6.893,10.34l3.447-3.447h1.149
		l-4.595,6.893l1.149,1.149h1.149c17.12-19.913,28.225-29.87,33.317-29.87c2.793,0,5.091,1.916,6.893,5.744
		c2.298,0,3.447,0.767,3.447,2.298c0,2.884-6.511,9.394-19.53,19.53l-16.084,17.233v2.298c6.893,11.353,12.637,23.991,17.233,37.912
		l-1.149,3.447h1.149l-5.744,8.042h-3.447v-2.298l-3.447,2.298l-14.935-35.614h-1.149c-7.434,9.056-15.094,22.076-22.977,39.061
		h-2.298v-2.298l1.149-1.149l-1.149-1.149v-1.149c3.829-9.326,10.722-21.963,20.679-37.912h1.149v-3.447
		c-15.318,21.176-22.977,34.578-22.977,40.21l-4.595,2.298c-2.478,0-5.159-2.681-8.042-8.042c0-4.325,9.191-20.409,27.572-48.252
		c-7.028-13.11-11.242-23.067-12.637-29.87h1.149l-4.595-11.489h1.149l1.149,1.149L402.318,1.913z M383.936,92.672l25.275-40.21
		c1.531,0,2.298-1.531,2.298-4.595h-1.149C396.798,65.618,387.991,80.553,383.936,92.672z M433.337,19.145h1.149l-8.042,8.042
		v-1.149L433.337,19.145z M435.634,36.378l-2.298,3.447h1.149l2.298-3.447H435.634z M451.718,3.062h1.149l-17.233,16.084h-1.149
		v-1.149L451.718,3.062z M436.783,92.672v1.149l1.149,4.595h1.149v-4.595l-1.149-1.149H436.783z"/>
	<path style="fill:#FFFFFF;" d="M20.156,124.367h2.298l3.244,2.298l0.068-1.149c4.099,0.767,7.005,2.681,8.718,5.744
		c2.658,0,5.406,8.042,8.245,24.126l15.881-24.126l1.216-1.149h1.149l-0.068,1.149L44.62,159.981h2.298
		c12.029-23.743,19.193-35.614,21.49-35.614l3.244,2.298l0.068-1.149c3.288,0,7.186,3.83,11.691,11.489l-0.338,3.447l-1.216,1.149
		l1.014,1.149l-0.405,4.595h-2.298l1.689,6.893l-2.23,12.637l-0.338,3.447l1.081,1.149l-0.135,1.149l-2.433,2.298l2.027,2.298
		l-2.433,2.298l2.027,2.298l-1.216,1.149h-1.149l1.081,1.149l-2.838,32.168c-2.298,0-3.537,1.149-3.717,3.447
		c-2.298,0-3.627,1.915-3.987,5.744H64.15l-6.488-4.595l1.757-6.893l-1.689-6.893l7.772-49.401
		c-3.83,4.011-8.02,12.435-12.57,25.275c-0.405,4.46-2.208,7.525-5.406,9.191h-1.149L46.444,191l1.284-1.149l0.135-1.149
		l-1.081-1.149l2.5-2.298l0.27-3.447h-2.298c-0.316,4.19-2.118,7.254-5.406,9.191H40.7l-5.204-5.744
		c-2.027,0-3.244-3.447-3.649-10.34c-3.92-7.974-5.722-13.719-5.406-17.233h-1.149l-2.365,13.786l-0.811,9.191l-1.419,3.447
		l0.608,5.744l-2.163,25.275c-1.532,0-2.411,1.149-2.636,3.447l-6.217,5.744H9.14l-7.772-3.447l1.689-5.744l-0.068-12.637
		l0.473-5.744l1.216-1.149l-1.014-1.149l0.135-1.149c1.036-11.714,3.288-24.351,6.758-37.912h1.149l-1.081-1.149l0.135-1.149
		l1.554-4.595l-0.811-4.595l0.135-1.149h1.149l-0.203,2.298h1.149l0.338-3.447l-1.081-1.149l4.19-8.042l0.27-3.447l-1.284,1.149
		H15.02l-1.014-1.149l0.27-3.447h1.149l1.081,1.149h1.149L20.156,124.367z M48.945,176.065l0.879,3.447h1.149
		c0.315-4.099,5.045-14.439,14.192-31.019l1.622-5.744C61.063,149.867,55.116,160.972,48.945,176.065z M62.731,123.218h2.298
		l-0.203,2.298l-2.703,4.595l-1.014-1.149H59.96L62.731,123.218z M61.92,211.679l-0.811,9.191h1.149l1.689-5.744l-0.879-3.447H61.92
		z M69.421,151.939l-1.216,1.149l-2.568,28.721h1.149l3.311-24.126l-1.081-1.149h1.149l-1.014-1.149l0.068-1.149l1.284-1.149
		l0.068-1.149H69.421z"/>
	<path style="fill:#FFFFFF;" d="M147.34,124.84l5.542,3.852c-1.622,6.803-4.551,10.069-8.785,9.799l-30.005,1.352l-0.135,2.298
		l5.677,0.405l6.961-0.676l1.081,1.284l1.149,0.068l8.11-0.676l2.298,0.203l-0.068,1.149l-26.694,2.771l-2.095,14.867l1.149,0.068
		l31.222-2.5l1.014,1.216l-0.068,1.149l-2.298-0.203v1.149l7.907,1.757l-0.068,1.149c-1.667,4.281-12.661,7.749-32.979,10.407
		l-11.556,0.405l1.081,1.149l-5.542,14.597h-1.149l0.676-10.34l-1.149-0.068l-2.23,15.949c22.932-3.063,39.129-4.28,48.59-3.649
		l5.609,1.554l-0.068,2.298l-2.298-0.135l1.014,1.216l-0.203,3.447c-2.208,2.884-6.893,4.1-14.057,3.649l-0.068,1.149l9.191,0.608
		l-0.203,2.298l-53.455,7.839l-1.149-0.068c-3.695-0.811-5.542-2.005-5.542-3.582v-0.203l0.203-3.447l3.176-12.435l-1.081-1.216
		l2.298,0.068l-0.405,5.744l1.149,0.135c0.45-3.829,1.352-5.677,2.703-5.542l-1.081-1.284l0.811-11.421l-2.298-0.203l-1.554,5.677
		l1.284-1.081l1.149,0.068l-0.473,6.893l-1.149-0.135l0.203-3.379l-1.149-0.068l-0.135,2.298l-1.149-0.068l0.135-2.298l3.649-19.395
		l-1.149-0.068l2.636-5.542l-1.081-1.216l0.068-1.149l2.5-19.395l1.081,1.216l1.149,0.068l0.135-2.298l-0.743-5.812l1.825-10.272
		l0.203-3.447l1.149,0.135l1.081,1.216l1.216-1.081l1.149,0.135l1.081,1.149l1.216-1.081l3.447,0.27L147.34,124.84z M89.83,175.051
		l-0.541,8.042l1.149,0.068l0.541-7.974L89.83,175.051z M127.742,176.538h1.149l-0.135,1.149l-20.814,2.095l-1.081-1.284
		l0.068-1.081l10.407-0.473l-0.068,1.149L127.742,176.538z"/>
	<path style="fill:#FFFFFF;" d="M194.511,126.394h1.149c11.127,0,19.553,4.595,25.275,13.786v1.149h-2.298l1.149,1.149v1.149
		c-4.595-0.541-6.893-1.306-6.893-2.298c-17.886,0-31.289,9.191-40.21,27.572l-2.298,8.042l3.447,21.828h3.447
		c9.551,0,20.274-6.893,32.168-20.679h1.149v1.149c-8.155,11.759-17.346,18.652-27.572,20.679v1.149h1.149
		c8.019,0,17.976-6.893,29.87-20.679l3.447,4.595v3.447c0,2.478-5.744,8.222-17.233,17.233l-1.149,1.149h-1.149v2.298
		c13.02-6.352,19.53-10.948,19.53-13.786h2.298v1.149c-9.642,11.489-20.747,17.233-33.317,17.233v1.149h5.744l4.595-1.149h1.149
		v1.149l-13.786,2.23c-5.812,0-11.939-4.19-18.382-12.57v1.149l5.744,9.191v1.081h-3.447c-7.119-4.866-11.331-10.97-12.637-18.314
		l-1.149-14.935c0-19.193,3.829-31.447,11.489-36.763v1.149l-6.893,11.489v1.149h1.149c0-7.299,9.573-17.638,28.721-31.019
		l-3.447,1.149h-1.149v-1.149L194.511,126.394z M157.748,194.176v3.447l1.149,4.595h1.149v-1.149l-1.149-6.893H157.748z
		 M171.534,139.031v1.149l-5.744,5.744v-1.149L171.534,139.031z M181.873,130.99h1.149v1.149l-8.042,3.447
		C174.98,134.054,177.278,132.522,181.873,130.99z"/>
	<path style="fill:#FFFFFF;" d="M237.559,124.164h1.149v3.447h1.149v-2.298h4.595c1.531,0,2.298,2.298,2.298,6.893l3.447,1.149
		c0-2.298,0.766-3.447,2.298-3.447l1.149,1.149v1.149l-5.744,31.019l17.233-1.149h11.488l1.149-5.744l-1.149-1.149h2.298
		l-1.149-8.042v-1.149h2.298l-1.149-1.149v-2.298h2.298v-2.298h-2.298v-1.149h2.298l-1.149-1.149v-8.042l1.149,1.149h1.149v-4.595
		l-1.149-1.149v-1.149h3.447l-5.744,39.061c1.531,0,3.829-12.637,6.893-37.912l4.595-1.149c0.766,6.127,1.914,9.191,3.447,9.191
		h1.149c0-2.298,0.766-3.447,2.298-3.447h1.149c-3.83,26.491-9.574,57.51-17.233,93.057h-1.149l-1.149-1.149l1.149-1.149v-9.191
		h-1.149l-3.447,11.489h-3.447c-1.532,0-2.298-2.298-2.298-6.893h-1.149v4.595h-1.149c-1.532,0-2.298-1.149-2.298-3.447
		c0-5.542,2.298-18.561,6.893-39.061h-1.149l-14.935,1.149l-10.34-1.149c-2.298,18.382-4.595,30.637-6.893,36.763h-3.447
		c-1.532,0-2.298-3.063-2.298-9.191h-1.149l-1.149,8.042l-2.298-2.298v-3.447l1.149-1.149v-1.149l-1.149-1.149h-1.149l-1.149,1.149
		h-1.149l-1.149-4.595c3.063-25.86,6.51-44.625,10.34-56.294h1.149l-1.149-1.149v-3.447l3.447-12.637h-1.149L237.559,124.164z
		 M224.922,206.881h1.149v5.744h-1.149V206.881z M231.815,167.82v4.595h1.149v-4.595H231.815z M234.112,156.332l-1.149,5.744v1.149
		h1.149l1.149-4.595v-2.298H234.112z M235.261,150.588v4.595h1.149v-4.595H235.261z M237.559,137.95l-1.149,9.191v2.298h1.149
		l1.149-9.191v-2.298H237.559z M238.708,128.759v8.042h1.149v-8.042H238.708z M273.173,188.5v4.595h1.149V188.5H273.173z
		 M275.471,179.309l-1.149,6.893v1.149h1.149l1.149-5.744v-2.298H275.471z M281.215,201.137l-1.149,5.744v3.447h1.149l1.149-8.042
		v-1.149H281.215z"/>
	<path style="fill:#FFFFFF;" d="M361.973,124.84l5.542,3.852c-1.622,6.803-4.551,10.069-8.785,9.799l-30.005,1.352l-0.135,2.298
		l5.677,0.405l6.961-0.676l1.081,1.284l1.149,0.068l8.11-0.676l2.298,0.203l-0.068,1.149l-26.694,2.771l-2.095,14.867l1.149,0.068
		l31.222-2.5l1.014,1.216l-0.068,1.149l-2.298-0.203v1.149l7.907,1.757l-0.068,1.149c-1.667,4.281-12.661,7.749-32.979,10.407
		l-11.556,0.405l1.081,1.149l-5.542,14.597h-1.149l0.676-10.34l-1.149-0.068l-2.23,15.949c22.932-3.063,39.129-4.28,48.59-3.649
		l5.609,1.554l-0.068,2.298l-2.298-0.135l1.014,1.216l-0.203,3.447c-2.208,2.884-6.893,4.1-14.057,3.649l-0.068,1.149l9.191,0.608
		l-0.203,2.298l-53.455,7.839l-1.149-0.068c-3.695-0.811-5.542-2.005-5.542-3.582v-0.203l0.203-3.447l3.176-12.435l-1.081-1.216
		l2.298,0.068l-0.405,5.744l1.149,0.135c0.45-3.829,1.352-5.677,2.703-5.542l-1.081-1.284l0.811-11.421l-2.298-0.203l-1.554,5.677
		l1.284-1.081l1.149,0.068l-0.473,6.893l-1.149-0.135l0.203-3.379l-1.149-0.068l-0.135,2.298l-1.149-0.068l0.135-2.298l3.649-19.395
		l-1.149-0.068l2.636-5.542l-1.081-1.216l0.068-1.149l2.5-19.395l1.081,1.216l1.149,0.068l0.135-2.298l-0.743-5.812l1.825-10.272
		l0.203-3.447l1.149,0.135l1.081,1.216l1.216-1.081l1.149,0.135l1.081,1.149l1.216-1.081l3.447,0.27L361.973,124.84z
		 M304.463,175.051l-0.541,8.042l1.149,0.068l0.541-7.974L304.463,175.051z M342.375,176.538h1.149l-0.135,1.149l-20.814,2.095
		l-1.081-1.284l0.068-1.081l10.407-0.473l-0.068,1.149L342.375,176.538z"/>
	<path style="fill:#FFFFFF;" d="M385.558,124.164c1.531,0,2.298,2.298,2.298,6.893h2.298l3.447-2.298l1.149,1.149l-5.744,64.336
		c4.866-2.298,17.885-4.978,39.061-8.042h1.149v1.149c-26.807,4.37-40.21,7.817-40.21,10.34l12.637-3.447v1.149l21.828-4.595v1.149
		l1.149-1.149h1.149l1.149,1.149l5.744-1.149h4.595l8.042,1.149v1.149c0,2.298-5.744,4.213-17.233,5.744v1.149l1.149-1.149h1.149
		l8.042,1.149l1.149-1.149v3.447l-37.912,9.191l-24.126,9.191h-3.447l-4.595-5.744h-1.149v-1.149c0-1.936,1.531-3.085,4.595-3.447
		v-3.447l-3.447-4.595l4.595-51.698h1.149v4.595l-1.149,8.042h2.298l-2.298,14.935l1.149,1.149l-1.149,4.595v5.744h1.149
		l4.595-60.889c1.531,0,2.298-1.149,2.298-3.447l1.149-1.149H385.558z"/>
	<path style="fill:#FFFFFF;" d="M503.214,124.84l5.542,3.852c-1.622,6.803-4.551,10.069-8.785,9.799l-30.005,1.352l-0.135,2.298
		l5.677,0.405l6.961-0.676l1.081,1.284l1.149,0.068l8.11-0.676l2.298,0.203l-0.068,1.149l-26.694,2.771l-2.095,14.867l1.149,0.068
		l31.222-2.5l1.014,1.216l-0.068,1.149l-2.298-0.203v1.149l7.907,1.757l-0.068,1.149c-1.667,4.281-12.661,7.749-32.979,10.407
		l-11.556,0.405l1.081,1.149l-5.542,14.597h-1.149l0.676-10.34l-1.149-0.068l-2.23,15.949c22.932-3.063,39.129-4.28,48.59-3.649
		l5.609,1.554l-0.068,2.298l-2.298-0.135l1.014,1.216l-0.203,3.447c-2.208,2.884-6.893,4.1-14.057,3.649l-0.068,1.149l9.191,0.608
		l-0.203,2.298l-53.455,7.839l-1.149-0.068c-3.695-0.811-5.542-2.005-5.542-3.582v-0.203l0.203-3.447l3.176-12.435l-1.081-1.216
		l2.298,0.068l-0.405,5.744l1.149,0.135c0.45-3.829,1.352-5.677,2.703-5.542l-1.081-1.284l0.811-11.421l-2.298-0.203l-1.554,5.677
		l1.284-1.081l1.149,0.068l-0.473,6.893l-1.149-0.135l0.203-3.379l-1.149-0.068l-0.135,2.298l-1.149-0.068l0.135-2.298l3.649-19.395
		l-1.149-0.068l2.636-5.542l-1.081-1.216l0.068-1.149l2.5-19.395l1.081,1.216l1.149,0.068l0.135-2.298l-0.743-5.812l1.825-10.272
		l0.203-3.447l1.149,0.135l1.081,1.216l1.216-1.081l1.149,0.135l1.081,1.149l1.216-1.081l3.447,0.27L503.214,124.84z
		 M445.704,175.051l-0.541,8.042l1.149,0.068l0.541-7.974L445.704,175.051z M483.616,176.538h1.149l-0.135,1.149l-20.814,2.095
		l-1.081-1.284l0.068-1.081l10.407-0.473l-0.068,1.149L483.616,176.538z"/>
	<path style="fill:#FFFFFF;" d="M532.476,125.38l8.042,6.893c0-2.298,0.766-3.447,2.298-3.447h1.149l16.084,41.359v2.298h-1.149
		l-2.298-6.893h-1.149v2.298l8.042,19.53h1.149c3.063-19.913,7.478-40.705,13.246-62.376l3.447,2.298l3.447-1.149l6.893,3.447v1.149
		c-2.298,0-3.447,1.532-3.447,4.595h1.149l1.149,1.149h1.149l1.149-5.744h2.298v1.149l-1.149,1.149l1.149,1.149v1.149
		c-5.768,17.706-10.948,43.093-15.543,76.162h-2.298l2.298-18.382c-1.532,0-3.83,7.276-6.893,21.828
		c-2.838,2.298-5.519,3.447-8.042,3.447v2.298h-1.149c0-1.532-1.532-2.298-4.595-2.298v-8.042c0-3.469-7.66-22.616-22.977-57.443
		h-1.149c-3.064,13.651-5.744,32.033-8.042,55.145l-1.149-1.149c-4.595,1.352-6.893,3.267-6.893,5.744h-2.298
		c-1.532-2.883-2.298-7.862-2.298-14.935h-1.149v10.34h-2.298l-1.149-5.744c0-20.814,4.595-46.089,13.786-75.824L532.476,125.38z
		 M516.392,154.102v1.149l1.149,1.149l-1.149,1.149v2.298h1.149l1.149-4.595l-1.149-1.149H516.392z M560.048,172.483
		c1.982,0,3.514,3.064,4.595,9.191v1.149h-1.149L560.048,172.483z"/>
</g>
</svg>
