<svg xmlns="http://www.w3.org/2000/svg" viewBox="0 0 596.437 225.852"><g fill="#fff"><path d="M205.864 1.642l3.447 1.149v2.298h-3.447l2.298 3.447c-1.667 3.83-7.795 5.744-18.382 5.744l-8.042 1.149-1.149 3.447h1.149c-2.298 5.452-6.893 29.961-13.786 73.526l3.447 14.935h-1.149c-1.713 0-3.244-3.83-4.595-11.489l1.149-11.489V83.21h-1.149v2.298c-2.298 0-3.447.767-3.447 2.298v1.149l2.298 18.382v1.149h-2.298l-4.595-3.447-1.149 1.149h-1.149c-3.064-6.623-4.595-12.367-4.595-17.233l1.149 1.149h1.149l-2.298-8.042 3.447-1.149v-5.744h-2.298V74.02c2.298 0 3.447-.766 3.447-2.298v-1.149h-2.298c0-6.126 1.149-9.191 3.447-9.191V46.448c1.216-1.081 2.747-9.123 4.595-24.126l-8.042 1.149-16.084-1.149v-1.149l5.744-1.149v1.149l1.149-1.149h17.233v-3.447l-18.382 2.298-1.149-1.149h-1.149l-6.893 1.149-3.447-2.298 1.149-5.744-1.149-1.149c0-3.829 4.595-5.744 13.786-5.744l62.038-2.298zm-49.4 67.783L154.166 94.7h2.298l-1.149-5.744v-2.298l2.298-3.447h-1.149l1.149-1.149v-1.149l-1.149-1.149v-1.149l2.298-4.595-1.149-4.595h-1.149zm42.507-64.336v1.149h4.595V5.089h-4.595zm62.443-1.352l5.542 3.852c-1.622 6.803-4.551 10.069-8.785 9.799l-30.005 1.352-.135 2.298 5.677.405 6.961-.676 1.081 1.284 1.149.068 8.11-.676 2.298.203-.068 1.149-26.694 2.771-2.095 14.867 1.149.068 31.222-2.5 1.014 1.216-.068 1.149-2.298-.203v1.149l7.907 1.757-.068 1.149c-1.667 4.281-12.661 7.749-32.979 10.407l-11.556.405 1.081 1.149-5.542 14.597h-1.149l.676-10.34-1.149-.068-2.23 15.949c22.932-3.063 39.129-4.28 48.59-3.649l5.609 1.554-.068 2.298-2.298-.135 1.014 1.216-.203 3.447c-2.208 2.884-6.893 4.1-14.057 3.649l-.068 1.149 9.191.608-.203 2.298-53.455 7.839-1.149-.068c-3.695-.811-5.542-2.005-5.542-3.582v-.201l.203-3.447 3.176-12.435-1.081-1.216 2.298.068-.405 5.744 1.149.135c.45-3.829 1.352-5.677 2.703-5.542l-1.081-1.284.811-11.421-2.298-.203-1.554 5.677 1.284-1.081 1.149.068-.473 6.893-1.149-.135.203-3.379-1.149-.068-.135 2.298-1.149-.068.135-2.298 3.649-19.395-1.149-.068 2.636-5.542-1.081-1.216.068-1.149 2.5-19.395 1.081 1.216 1.149.068.135-2.298-.743-5.812 1.825-10.272.203-3.447 1.149.135 1.081 1.216 1.216-1.081 1.149.135 1.081 1.149 1.216-1.081 3.447.27 40.344-.742zm-57.51 50.212l-.541 8.042 1.149.068.541-7.974-1.149-.136zm37.912 1.487h1.149l-.135 1.149-20.814 2.095-1.081-1.284.068-1.081 10.407-.473-.068 1.149 10.474-1.555zm42.44-52.037h4.595l3.447 2.298 8.042-1.149c13.29 0 25.545 7.66 36.763 22.977l5.744 11.489-1.149 1.149 1.149 5.744v5.744c0 19.689-16.084 34.624-48.252 44.805l-11.488 1.149c0-1.938-1.532-3.086-4.595-3.447v4.595h-3.447V91.86l-1.149-1.149 1.149-1.149v-1.149c-4.595-3.153-6.893-5.834-6.893-8.042 2.298-34.691 6.126-59.965 11.488-75.824h1.149l1.149 1.149 2.298-2.297zm-11.488 88.462h1.149v1.149l-2.298 2.298h-1.149v-1.149l2.298-2.298zm6.893-76.973l-5.744 33.317v1.149h1.149l5.744-32.168v-2.298h-1.149zm5.744 70.08l1.149 3.447h2.298l2.298-2.298v-1.149h-1.149l-3.447 1.149-1.149-1.149zm12.638-62.038c0 1.532-1.532 2.298-4.595 2.298-3.064 13.967-5.362 30.051-6.893 48.252 4.46 0 15.949-3.829 34.466-11.489v-1.149h-2.298c6.126-6.262 9.191-12.773 9.191-19.53v-3.447c0-8.424-5.744-13.403-17.233-14.935h-12.638zm-3.447 60.889v1.149h4.595l5.744-2.298v-1.149h-1.149l-9.19 2.298zM321.02 22.93v1.149l4.595 2.298v-1.149l-3.447-2.298h-1.148zm0 53.996c1.801-.27 4.482-2.568 8.042-6.893v-1.149l-8.042 8.042zm6.893-20.679l-2.298 4.595h1.149l2.298-4.595h-1.149zm3.446-17.233L330.21 52.8h2.298v-3.447l1.149-4.595-1.149-5.744h-1.149zm8.042 9.191l-5.744 18.382v1.149h1.149l5.744-17.233v-2.298h-1.149zm62.917-46.292c8.424 4.325 12.637 10.453 12.637 18.382l6.893 10.34 3.447-3.447h1.149l-4.595 6.893 1.149 1.149h1.149c17.12-19.913 28.225-29.87 33.317-29.87 2.793 0 5.091 1.916 6.893 5.744 2.298 0 3.447.767 3.447 2.298 0 2.884-6.511 9.394-19.53 19.53L432.19 50.165v2.298c6.893 11.353 12.637 23.991 17.233 37.912l-1.149 3.447h1.149l-5.744 8.042h-3.447v-2.298l-3.447 2.298L421.85 66.25h-1.149c-7.434 9.056-15.094 22.076-22.977 39.061h-2.298v-2.298l1.149-1.149-1.149-1.149v-1.149c3.829-9.326 10.722-21.963 20.679-37.912h1.149v-3.447c-15.318 21.176-22.977 34.578-22.977 40.21l-4.595 2.298c-2.478 0-5.159-2.681-8.042-8.042 0-4.325 9.191-20.409 27.572-48.252-7.028-13.11-11.242-23.067-12.637-29.87h1.149l-4.595-11.489h1.149l1.149 1.149 6.891-2.298zm-18.382 90.759l25.275-40.21c1.531 0 2.298-1.531 2.298-4.595h-1.149c-13.562 17.751-22.369 32.686-26.424 44.805zm49.401-73.527h1.149l-8.042 8.042v-1.149l6.893-6.893zm2.297 17.233l-2.298 3.447h1.149l2.298-3.447h-1.149zm16.084-33.316h1.149l-17.233 16.084h-1.149v-1.149l17.233-14.935zm-14.935 89.61v1.149l1.149 4.595h1.149v-4.595l-1.149-1.149h-1.149zM20.156 124.367h2.298l3.244 2.298.068-1.149c4.099.767 7.005 2.681 8.718 5.744 2.658 0 5.406 8.042 8.245 24.126L58.61 131.26l1.216-1.149h1.149l-.068 1.149-16.287 28.721h2.298c12.029-23.743 19.193-35.614 21.49-35.614l3.244 2.298.068-1.149c3.288 0 7.186 3.83 11.691 11.489l-.338 3.447-1.216 1.149 1.014 1.149-.405 4.595h-2.298l1.689 6.893-2.23 12.637-.338 3.447 1.081 1.149-.135 1.149-2.433 2.298 2.027 2.298-2.433 2.298 2.027 2.298-1.216 1.149h-1.149l1.081 1.149-2.838 32.168c-2.298 0-3.537 1.149-3.717 3.447-2.298 0-3.627 1.915-3.987 5.744H64.15l-6.488-4.595 1.757-6.893-1.689-6.893 7.772-49.401c-3.83 4.011-8.02 12.435-12.57 25.275-.405 4.46-2.208 7.525-5.406 9.191h-1.149l.067-1.153 1.284-1.149.135-1.149-1.081-1.149 2.5-2.298.27-3.447h-2.298c-.316 4.19-2.118 7.254-5.406 9.191H40.7l-5.204-5.744c-2.027 0-3.244-3.447-3.649-10.34-3.92-7.974-5.722-13.719-5.406-17.233h-1.149l-2.365 13.786-.811 9.191-1.419 3.447.608 5.744-2.163 25.275c-1.532 0-2.411 1.149-2.636 3.447l-6.217 5.744H9.14l-7.772-3.447 1.689-5.744-.068-12.637.473-5.744 1.216-1.149-1.014-1.149.135-1.149c1.036-11.714 3.288-24.351 6.758-37.912h1.149l-1.081-1.149.135-1.149 1.554-4.595-.811-4.595.135-1.149h1.149l-.203 2.298h1.149l.338-3.447-1.081-1.149 4.19-8.042.27-3.447-1.284 1.149H15.02l-1.014-1.149.27-3.447h1.149l1.081 1.149h1.149l2.501-2.296zm28.789 51.698l.879 3.447h1.149c.315-4.099 5.045-14.439 14.192-31.019l1.622-5.744c-5.724 7.118-11.671 18.223-17.842 33.316zm13.786-52.847h2.298l-.203 2.298-2.703 4.595-1.014-1.149H59.96l2.771-5.744zm-.811 88.461l-.811 9.191h1.149l1.689-5.744-.879-3.447H61.92zm7.501-59.74l-1.216 1.149-2.568 28.721h1.149l3.311-24.126-1.081-1.149h1.149l-1.014-1.149.068-1.149 1.284-1.149.068-1.149h-1.15zm77.919-27.099l5.542 3.852c-1.622 6.803-4.551 10.069-8.785 9.799l-30.005 1.352-.135 2.298 5.677.405 6.961-.676 1.081 1.284 1.149.068 8.11-.676 2.298.203-.068 1.149-26.694 2.771-2.095 14.867 1.149.068 31.222-2.5 1.014 1.216-.068 1.149-2.298-.203v1.149l7.907 1.757-.068 1.149c-1.667 4.281-12.661 7.749-32.979 10.407l-11.556.405 1.081 1.149-5.542 14.597h-1.149l.676-10.34-1.149-.068-2.23 15.949c22.932-3.063 39.129-4.28 48.59-3.649l5.609 1.554-.068 2.298-2.298-.135 1.014 1.216-.203 3.447c-2.208 2.884-6.893 4.1-14.057 3.649l-.068 1.149 9.191.608-.203 2.298-53.455 7.839-1.149-.068c-3.695-.811-5.542-2.005-5.542-3.582v-.203l.203-3.447 3.176-12.435-1.081-1.216 2.298.068-.405 5.744 1.149.135c.45-3.829 1.352-5.677 2.703-5.542l-1.081-1.284.811-11.421-2.298-.203-1.554 5.677 1.284-1.081 1.149.068-.473 6.893-1.149-.135.203-3.379-1.149-.068-.135 2.298-1.149-.068.135-2.298 3.649-19.395-1.149-.068 2.636-5.542-1.081-1.216.068-1.149 2.5-19.395 1.081 1.216 1.149.068.135-2.298-.743-5.812 1.825-10.272.203-3.447 1.149.135 1.081 1.216 1.216-1.081 1.149.135 1.081 1.149 1.216-1.081 3.447.27 40.344-.74zm-57.51 50.211l-.541 8.042 1.149.068.541-7.974-1.149-.136zm37.912 1.487h1.149l-.135 1.149-20.814 2.095-1.081-1.284.068-1.081 10.407-.473-.068 1.149 10.474-1.555zm66.769-50.144h1.149c11.127 0 19.553 4.595 25.275 13.786v1.149h-2.298l1.149 1.149v1.149c-4.595-.541-6.893-1.306-6.893-2.298-17.886 0-31.289 9.191-40.21 27.572l-2.298 8.042 3.447 21.828h3.447c9.551 0 20.274-6.893 32.168-20.679h1.149v1.149c-8.155 11.759-17.346 18.652-27.572 20.679v1.149h1.149c8.019 0 17.976-6.893 29.87-20.679l3.447 4.595v3.447c0 2.478-5.744 8.222-17.233 17.233l-1.149 1.149h-1.149v2.298c13.02-6.352 19.53-10.948 19.53-13.786h2.298v1.149c-9.642 11.489-20.747 17.233-33.317 17.233v1.149h5.744l4.595-1.149h1.149v1.149l-13.786 2.23c-5.812 0-11.939-4.19-18.382-12.57v1.149l5.744 9.191v1.081h-3.447c-7.119-4.866-11.331-10.97-12.637-18.314l-1.149-14.935c0-19.193 3.829-31.447 11.489-36.763v1.149l-6.893 11.489v1.149h1.149c0-7.299 9.573-17.638 28.721-31.019l-3.447 1.149h-1.149v-1.149l10.34-2.3zm-36.763 67.782v3.447l1.149 4.595h1.149v-1.149l-1.149-6.893h-1.149zm13.786-55.145v1.149l-5.744 5.744v-1.149l5.744-5.744zm10.339-8.041h1.149v1.149l-8.042 3.447c0-1.532 2.298-3.064 6.893-4.596zm55.686-6.826h1.149v3.447h1.149v-2.298h4.595c1.531 0 2.298 2.298 2.298 6.893l3.447 1.149c0-2.298.766-3.447 2.298-3.447l1.149 1.149v1.149l-5.744 31.019 17.233-1.149h11.488l1.149-5.744-1.149-1.149h2.298l-1.149-8.042v-1.149h2.298l-1.149-1.149v-2.298h2.298v-2.298h-2.298v-1.149h2.298l-1.149-1.149v-8.042l1.149 1.149h1.149v-4.595l-1.149-1.149v-1.149h3.447l-5.744 39.061c1.531 0 3.829-12.637 6.893-37.912l4.595-1.149c.766 6.127 1.914 9.191 3.447 9.191h1.149c0-2.298.766-3.447 2.298-3.447h1.149c-3.83 26.491-9.574 57.51-17.233 93.057h-1.149l-1.149-1.149 1.149-1.149v-9.191h-1.149l-3.447 11.489h-3.447c-1.532 0-2.298-2.298-2.298-6.893h-1.149v4.595h-1.149c-1.532 0-2.298-1.149-2.298-3.447 0-5.542 2.298-18.561 6.893-39.061h-1.149l-14.935 1.149-10.34-1.149c-2.298 18.382-4.595 30.637-6.893 36.763h-3.447c-1.532 0-2.298-3.063-2.298-9.191h-1.149l-1.149 8.042-2.298-2.298v-3.447l1.149-1.149v-1.149l-1.149-1.149h-1.149l-1.149 1.149h-1.149l-1.149-4.595c3.063-25.86 6.51-44.625 10.34-56.294h1.149l-1.149-1.149v-3.447l3.447-12.637h-1.149l1.15-3.443zm-12.637 82.717h1.149v5.744h-1.149v-5.744zm6.893-39.061v4.595h1.149v-4.595h-1.149zm2.297-11.488l-1.149 5.744v1.149h1.149l1.149-4.595v-2.298h-1.149zm1.149-5.744v4.595h1.149v-4.595h-1.149zm2.298-12.638l-1.149 9.191v2.298h1.149l1.149-9.191v-2.298h-1.149zm1.149-9.191v8.042h1.149v-8.042h-1.149zm34.465 59.741v4.595h1.149V188.5h-1.149zm2.298-9.191l-1.149 6.893v1.149h1.149l1.149-5.744v-2.298h-1.149zm5.744 21.828l-1.149 5.744v3.447h1.149l1.149-8.042v-1.149h-1.149zm80.758-76.297l5.542 3.852c-1.622 6.803-4.551 10.069-8.785 9.799l-30.005 1.352-.135 2.298 5.677.405 6.961-.676 1.081 1.284 1.149.068 8.11-.676 2.298.203-.068 1.149-26.694 2.771-2.095 14.867 1.149.068 31.222-2.5 1.014 1.216-.068 1.149-2.298-.203v1.149l7.907 1.757-.068 1.149c-1.667 4.281-12.661 7.749-32.979 10.407l-11.556.405 1.081 1.149-5.542 14.597h-1.149l.676-10.34-1.149-.068-2.23 15.949c22.932-3.063 39.129-4.28 48.59-3.649l5.609 1.554-.068 2.298-2.298-.135 1.014 1.216-.203 3.447c-2.208 2.884-6.893 4.1-14.057 3.649l-.068 1.149 9.191.608-.203 2.298-53.455 7.839-1.149-.068c-3.695-.811-5.542-2.005-5.542-3.582v-.203l.203-3.447 3.176-12.435-1.081-1.216 2.298.068-.405 5.744 1.149.135c.45-3.829 1.352-5.677 2.703-5.542l-1.081-1.284.811-11.421-2.298-.203-1.554 5.677 1.284-1.081 1.149.068-.473 6.893-1.149-.135.203-3.379-1.149-.068-.135 2.298-1.149-.068.135-2.298 3.649-19.395-1.149-.068 2.636-5.542-1.081-1.216.068-1.149 2.5-19.395 1.081 1.216 1.149.068.135-2.298-.743-5.812 1.825-10.272.203-3.447 1.149.135 1.081 1.216 1.216-1.081 1.149.135 1.081 1.149 1.216-1.081 3.447.27 40.344-.74zm-57.51 50.211l-.541 8.042 1.149.068.541-7.974-1.149-.136zm37.912 1.487h1.149l-.135 1.149-20.814 2.095-1.081-1.284.068-1.081 10.407-.473-.068 1.149 10.474-1.555zm43.183-52.374c1.531 0 2.298 2.298 2.298 6.893h2.298l3.447-2.298 1.149 1.149-5.744 64.336c4.866-2.298 17.885-4.978 39.061-8.042h1.149v1.149c-26.807 4.37-40.21 7.817-40.21 10.34l12.637-3.447v1.149l21.828-4.595v1.149l1.149-1.149h1.149l1.149 1.149 5.744-1.149h4.595l8.042 1.149v1.149c0 2.298-5.744 4.213-17.233 5.744v1.149l1.149-1.149h1.149l8.042 1.149 1.149-1.149v3.447l-37.912 9.191-24.126 9.191h-3.447l-4.595-5.744h-1.149v-1.149c0-1.936 1.531-3.085 4.595-3.447v-3.447l-3.447-4.595 4.595-51.698h1.149v4.595l-1.149 8.042h2.298l-2.298 14.935 1.149 1.149-1.149 4.595v5.744h1.149l4.595-60.889c1.531 0 2.298-1.149 2.298-3.447l1.149-1.149h2.298z"/><path d="M503.214 124.84l5.542 3.852c-1.622 6.803-4.551 10.069-8.785 9.799l-30.005 1.352-.135 2.298 5.677.405 6.961-.676 1.081 1.284 1.149.068 8.11-.676 2.298.203-.068 1.149-26.694 2.771-2.095 14.867 1.149.068 31.222-2.5 1.014 1.216-.068 1.149-2.298-.203v1.149l7.907 1.757-.068 1.149c-1.667 4.281-12.661 7.749-32.979 10.407l-11.556.405 1.081 1.149-5.542 14.597h-1.149l.676-10.34-1.149-.068-2.23 15.949c22.932-3.063 39.129-4.28 48.59-3.649l5.609 1.554-.068 2.298-2.298-.135 1.014 1.216-.203 3.447c-2.208 2.884-6.893 4.1-14.057 3.649l-.068 1.149 9.191.608-.203 2.298-53.455 7.839-1.149-.068c-3.695-.811-5.542-2.005-5.542-3.582v-.203l.203-3.447L443 197.959l-1.081-1.216 2.298.068-.405 5.744 1.149.135c.45-3.829 1.352-5.677 2.703-5.542l-1.081-1.284.811-11.421-2.298-.203-1.554 5.677 1.284-1.081 1.149.068-.473 6.893-1.149-.135.203-3.379-1.149-.068-.135 2.298-1.149-.068.135-2.298 3.649-19.395-1.149-.068 2.636-5.542-1.081-1.216.068-1.149 2.5-19.395 1.081 1.216 1.149.068.135-2.298-.743-5.812 1.825-10.272.203-3.447 1.149.135 1.081 1.216 1.216-1.081 1.149.135 1.081 1.149 1.216-1.081 3.447.27 40.344-.74zm-57.51 50.211l-.541 8.042 1.149.068.541-7.974-1.149-.136zm37.912 1.487h1.149l-.135 1.149-20.814 2.095-1.081-1.284.068-1.081 10.407-.473-.068 1.149 10.474-1.555zm48.86-51.158l8.042 6.893c0-2.298.766-3.447 2.298-3.447h1.149l16.084 41.359v2.298H558.9l-2.298-6.893h-1.149v2.298l8.042 19.53h1.149c3.063-19.913 7.478-40.705 13.246-62.376l3.447 2.298 3.447-1.149 6.893 3.447v1.149c-2.298 0-3.447 1.532-3.447 4.595h1.149l1.149 1.149h1.149l1.149-5.744h2.298v1.149l-1.149 1.149 1.149 1.149v1.149c-5.768 17.706-10.948 43.093-15.543 76.162h-2.298l2.298-18.382c-1.532 0-3.83 7.276-6.893 21.828-2.838 2.298-5.519 3.447-8.042 3.447v2.298h-1.149c0-1.532-1.532-2.298-4.595-2.298v-8.042c0-3.469-7.66-22.616-22.977-57.443h-1.149c-3.064 13.651-5.744 32.033-8.042 55.145l-1.149-1.149c-4.595 1.352-6.893 3.267-6.893 5.744h-2.298c-1.532-2.883-2.298-7.862-2.298-14.935h-1.149v10.34h-2.298l-1.149-5.744c0-20.814 4.595-46.089 13.786-75.824l9.19-1.15zm-16.084 28.722v1.149l1.149 1.149-1.149 1.149v2.298h1.149l1.149-4.595-1.149-1.149h-1.149zm43.656 18.381c1.982 0 3.514 3.064 4.595 9.191v1.149h-1.149l-3.446-10.34z"/></g></svg>